<svg width="53" height="38" viewBox="0 0 53 38" fill="none" xmlns="http://www.w3.org/2000/svg">
<path d="M14.8061 19.5387H11.7041C10.3829 19.5387 9.31061 20.611 9.31061 21.9322C9.31061 23.2534 10.3829 24.3257 11.7041 24.3257H15.6789C16.3479 24.3257 16.932 24.7661 17.165 25.3933C17.9148 27.4119 19.0089 29.264 20.375 30.8775C21.0755 31.7041 20.4979 32.971 19.4144 32.971H16.2055C15.0598 32.971 14.0721 33.8519 14.0178 34.9976C13.9604 36.2198 14.9353 37.2299 16.1449 37.2299H31.8878C32.7239 37.3464 33.576 37.407 34.444 37.407C44.701 37.407 53.0033 29.0249 52.8708 18.7345C52.7416 8.78545 44.6196 0.671458 34.6706 0.550187C33.276 0.532634 31.9165 0.671458 30.608 0.949105C27.4805 1.6129 24.2876 1.91927 21.0914 1.91927H5.83363C4.54433 1.91927 3.43375 2.91019 3.37311 4.19949C3.30769 5.57496 4.40391 6.71108 5.76502 6.71108H15.5704C17.5953 6.71108 18.9165 8.84768 18.0006 10.6524C17.9895 10.6731 17.9799 10.6939 17.9687 10.7146C17.5092 11.6321 16.5677 12.2098 15.5401 12.2098H2.99334C1.70404 12.2098 0.593449 13.2007 0.532813 14.49C0.46739 15.8654 1.56362 17.0016 2.92473 17.0016H14.8045C15.5241 17.0016 16.0986 17.5983 16.0715 18.318C16.0459 18.9993 15.4859 19.5371 14.8045 19.5371L14.8061 19.5387ZM29.2756 7.92857C29.4416 5.35156 31.5351 3.26123 34.1121 3.10007C37.238 2.9054 39.8119 5.48081 39.614 8.60673C39.4512 11.1853 37.3593 13.2773 34.7791 13.44C31.6484 13.6379 29.0714 11.0561 29.274 7.92698L29.2756 7.92857ZM18.9118 16.1814C18.7187 13.0555 21.2941 10.4832 24.42 10.6811C27.0002 10.8439 29.0921 12.9374 29.2533 15.5176C29.4496 18.6483 26.8662 21.2237 23.7371 21.0211C21.1601 20.8535 19.0713 18.76 18.9102 16.183L18.9118 16.1814ZM32.9425 28.0819C32.7797 30.6605 30.6878 32.7524 28.1092 32.9152C24.9785 33.1131 22.3983 30.5313 22.601 27.4022C22.7685 24.8235 24.862 22.7348 27.4406 22.5736C30.5665 22.379 33.1388 24.956 32.9425 28.0819ZM34.7424 20.6748C33.5664 20.8711 32.5611 19.8706 32.751 18.6946C32.8659 17.9829 33.4372 17.4069 34.1488 17.2872C35.3248 17.0909 36.3333 18.0898 36.1434 19.2674C36.0285 19.9807 35.4557 20.5567 34.7424 20.6764V20.6748ZM46.2919 28.0787C46.1307 30.6573 44.0404 32.7508 41.4618 32.9152C38.3311 33.1163 35.7509 30.5345 35.9519 27.4053C36.1163 24.8283 38.2066 22.7364 40.7836 22.5736C43.908 22.3758 46.4866 24.9528 46.2919 28.0787ZM44.8095 21.0322C41.9469 21.0322 39.6268 18.7121 39.6268 15.8527C39.6268 12.9932 42.1495 10.4737 45.1797 10.6843C47.736 10.8614 49.8056 12.9342 49.9795 15.4905C50.1853 18.5175 47.7902 21.0338 44.8111 21.0338L44.8095 21.0322Z" fill="#9534D2"/>
</svg>
