<svg width="17" height="17" viewBox="0 0 17 17" fill="none" xmlns="http://www.w3.org/2000/svg">
<path fill-rule="evenodd" clip-rule="evenodd" d="M12.5 4.61206C12.5 6.8212 10.7091 8.61206 8.5 8.61206C6.29086 8.61206 4.5 6.8212 4.5 4.61206C4.5 2.40292 6.29086 0.612061 8.5 0.612061C10.7091 0.612061 12.5 2.40292 12.5 4.61206ZM11 4.61206C11 5.99277 9.88071 7.11206 8.5 7.11206C7.11929 7.11206 6 5.99277 6 4.61206C6 3.23135 7.11929 2.11206 8.5 2.11206C9.88071 2.11206 11 3.23135 11 4.61206Z" fill="#141C24"/>
<path fill-rule="evenodd" clip-rule="evenodd" d="M0.5 14.3841V16.6121H16.5V14.3841C16.5 12.7167 15.4657 11.2242 13.9045 10.6387L13.7669 10.5871C10.3711 9.31371 6.62893 9.31371 3.23315 10.5871L3.09551 10.6387C1.53429 11.2242 0.5 12.7167 0.5 14.3841ZM3.75984 11.9916C6.81603 10.8455 10.184 10.8455 13.2402 11.9916L13.3778 12.0432C14.3536 12.4091 15 13.342 15 14.3841V15.1121H2V14.3841C2 13.342 2.64643 12.4091 3.62219 12.0432L3.75984 11.9916Z" fill="#141C24"/>
</svg>
