<svg width="21" height="17" viewBox="0 0 21 17" fill="none" xmlns="http://www.w3.org/2000/svg">
<path d="M10.5 13.6121C11.0523 13.6121 11.5 13.1644 11.5 12.6121C11.5 12.0598 11.0523 11.6121 10.5 11.6121C9.94771 11.6121 9.5 12.0598 9.5 12.6121C9.5 13.1644 9.94771 13.6121 10.5 13.6121Z" fill="#141C24"/>
<path d="M11.5 8.61206C11.5 9.16434 11.0523 9.61206 10.5 9.61206C9.94771 9.61206 9.5 9.16434 9.5 8.61206C9.5 8.05978 9.94771 7.61206 10.5 7.61206C11.0523 7.61206 11.5 8.05978 11.5 8.61206Z" fill="#141C24"/>
<path d="M10.5 5.61206C11.0523 5.61206 11.5 5.16434 11.5 4.61206C11.5 4.05978 11.0523 3.61206 10.5 3.61206C9.94771 3.61206 9.5 4.05978 9.5 4.61206C9.5 5.16434 9.94771 5.61206 10.5 5.61206Z" fill="#141C24"/>
<path fill-rule="evenodd" clip-rule="evenodd" d="M0.5 10.6121V14.6121C0.5 15.7166 1.39543 16.6121 2.5 16.6121H18.5C19.6046 16.6121 20.5 15.7166 20.5 14.6121V10.6121C19.3954 10.6121 18.5 9.71661 18.5 8.61206C18.5 7.50748 19.3954 6.61206 20.5 6.61206V2.61206C20.5 1.50748 19.6046 0.612061 18.5 0.612061H2.5C1.39543 0.612061 0.5 1.50751 0.5 2.61206V6.61206C1.60457 6.61206 2.5 7.50748 2.5 8.61206C2.5 9.71664 1.60457 10.6121 0.5 10.6121ZM19 14.6121C19 14.8882 18.7761 15.1121 18.5 15.1121H2.5C2.22385 15.1121 2 14.8882 2 14.6121V11.7752C3.18246 11.2135 4 10.0083 4 8.61206C4 7.21585 3.18248 6.01062 2 5.44888V2.61206C2 2.33591 2.22385 2.11206 2.5 2.11206H18.5C18.7761 2.11206 19 2.33591 19 2.61206V5.44888C17.8175 6.01062 17 7.21585 17 8.61206C17 10.0083 17.8175 11.2135 19 11.7752V14.6121Z" fill="#141C24"/>
</svg>
